<svg width="18" height="18" viewBox="0 0 18 18" fill="none" xmlns="http://www.w3.org/2000/svg">
<circle cx="9" cy="9" r="9" fill="#C89B3C"/>
<path fill-rule="evenodd" clip-rule="evenodd" d="M9.74993 10.2804C9.74993 9.56233 12 8.73122 12 7.13989C12 4.83111 10.7874 4 9.00029 4C7.24589 4 6 5.56322 6 6.35522L7.49985 7.1405C7.5351 6.73641 7.70451 6.35801 7.97862 6.07109C8.25274 5.78416 8.61424 5.60684 9.00029 5.56994C9.20219 5.54934 9.40594 5.57582 9.59689 5.64748C9.78785 5.71913 9.96126 5.83418 10.1047 5.98435C10.2481 6.13452 10.3579 6.31608 10.4263 6.51599C10.4947 6.7159 10.5199 6.92918 10.5001 7.1405C10.5001 8.27228 8.25007 8.29306 8.25007 10.281L9.74993 10.2804ZM10.5089 13.4209L9.00029 11.8509L7.49168 13.4209L9.00029 15L10.5089 13.4209Z" fill="#010A13"/>
</svg>
